# Blender v3.0.1 OBJ File: 'HouseOnSquare.blend'
# www.blender.org
mtllib HouseOnSquare.mtl
o Cube
v 4.346928 1.000000 -4.549122
v 4.346928 -1.000000 -4.549122
v 4.346928 1.000000 4.549122
v 4.346928 -1.000000 4.549122
v -4.346928 1.000000 -4.549122
v -4.346928 -1.000000 -4.549122
v -4.346928 1.000000 4.549122
v -4.346928 -1.000000 4.549122
v 1.259437 1.000000 0.842476
v 1.259437 1.000000 3.478515
v -1.259437 1.000000 0.842476
v -1.259437 1.000000 3.478515
v 1.259437 2.563759 0.842476
v 1.259437 2.563759 3.478515
v -1.259437 2.563759 0.842476
v -1.259437 2.563759 3.478515
v 0.409361 3.636808 1.732093
v 0.409361 3.636808 2.588898
v -0.409361 3.636808 1.732093
v -0.409361 3.636808 2.588898
v 0.409361 3.125585 1.732093
v 0.409361 3.125585 2.588898
v -0.409361 3.125585 1.732093
v -0.409361 3.125585 2.588898
v 1.259437 1.000000 0.842476
v -1.259437 1.000000 0.842476
v 1.259437 2.563759 0.842476
v -1.259437 2.563759 0.842476
v 0.269234 0.876482 0.842476
v -0.269234 0.876482 0.842476
v 0.269234 2.016637 0.842476
v -0.269234 2.016637 0.842476
v 0.269234 0.876482 0.842476
v -0.269234 0.876482 0.842476
v 0.269234 2.016637 0.842476
v -0.269234 2.016637 0.842476
v 0.269234 0.876482 0.787664
v -0.269234 0.876482 0.787664
v 0.269234 2.016637 0.787664
v -0.269234 2.016637 0.787664
v 0.206919 0.923765 0.787664
v -0.206919 0.923765 0.787664
v 0.206919 1.969354 0.787664
v -0.206919 1.969354 0.787664
v 0.206919 0.923765 0.818799
v -0.206919 0.923765 0.818799
v 0.206919 1.969354 0.818799
v -0.206919 1.969354 0.818799
v -1.259437 1.000000 3.478515
v -1.259437 2.563759 3.478515
v -1.259437 1.000000 0.842476
v -1.259437 2.563759 0.842476
v -1.259437 1.000000 3.279097
v -1.259437 1.000000 2.053500
v -1.259437 2.563759 3.279097
v -1.259437 2.563759 2.053500
v -1.643356 1.000000 3.279097
v -1.643356 1.000000 2.053500
v -1.643356 2.563759 3.279097
v -1.643356 2.563759 2.053500
v -1.288503 3.027857 2.929080
v -1.288503 3.027857 2.403516
v -1.614290 3.027857 2.929080
v -1.614290 3.027857 2.403516
v -1.288503 4.741185 2.929080
v -1.288503 4.741185 2.403516
v -1.614290 4.741185 2.929080
v -1.614290 4.741185 2.403516
v -1.320348 4.741185 2.877707
v -1.320348 4.741185 2.454889
v -1.582445 4.741185 2.877707
v -1.582445 4.741185 2.454889
v -1.320348 2.828507 2.877707
v -1.320348 2.828507 2.454889
v -1.582445 2.828507 2.877707
v -1.582445 2.828507 2.454889
vt 0.625000 0.250000
vt 0.625000 0.000000
vt 0.625000 0.000000
vt 0.625000 0.250000
vt 0.375000 0.750000
vt 0.625000 0.750000
vt 0.625000 1.000000
vt 0.375000 1.000000
vt 0.375000 0.000000
vt 0.375000 0.250000
vt 0.125000 0.500000
vt 0.375000 0.500000
vt 0.125000 0.750000
vt 0.625000 0.500000
vt 0.625000 0.000000
vt 0.625000 0.250000
vt 0.625000 0.500000
vt 0.625000 0.750000
vt 0.625000 1.000000
vt 0.625000 0.250000
vt 0.625000 0.000000
vt 0.625000 0.000000
vt 0.625000 0.250000
vt 0.625000 0.750000
vt 0.625000 1.000000
vt 0.625000 0.500000
vt 0.625000 0.500000
vt 0.625000 0.500000
vt 0.625000 0.500000
vt 0.625000 0.250000
vt 0.625000 0.500000
vt 0.625000 0.750000
vt 0.625000 1.000000
vt 0.875000 0.500000
vt 0.875000 0.750000
vt 0.625000 0.750000
vt 0.625000 0.000000
vt 0.625000 1.000000
vt 0.625000 0.250000
vt 0.625000 0.250000
vt 0.625000 0.500000
vt 0.625000 0.250000
vt 0.625000 0.250000
vt 0.625000 0.250000
vt 0.625000 0.250000
vt 0.625000 0.500000
vt 0.625000 0.500000
vt 0.625000 0.250000
vt 0.625000 0.500000
vt 0.625000 0.500000
vt 0.625000 0.500000
vt 0.625000 0.500000
vt 0.625000 0.500000
vt 0.625000 0.250000
vt 0.625000 0.250000
vt 0.625000 0.250000
vt 0.625000 0.250000
vt 0.625000 0.250000
vt 0.625000 0.500000
vt 0.625000 0.500000
vt 0.625000 0.250000
vt 0.625000 0.250000
vt 0.625000 0.000000
vt 0.625000 0.000000
vt 0.625000 1.000000
vt 0.625000 1.000000
vt 0.625000 1.000000
vt 0.625000 1.000000
vt 0.625000 0.250000
vt 0.625000 0.000000
vt 0.625000 0.250000
vt 0.625000 0.000000
vt 0.625000 0.000000
vt 0.625000 0.250000
vt 0.625000 0.250000
vt 0.625000 0.250000
vt 0.625000 0.000000
vt 0.625000 0.000000
vt 0.625000 0.250000
vt 0.625000 0.000000
vt 0.625000 1.000000
vt 0.625000 1.000000
vt 0.625000 1.000000
vt 0.625000 1.000000
vt 0.625000 1.000000
vt 0.625000 1.000000
vt 0.625000 0.250000
vt 0.625000 0.000000
vt 0.625000 0.250000
vt 0.625000 0.250000
vt 0.625000 0.250000
vt 0.625000 0.250000
vt 0.625000 0.000000
vt 0.625000 0.000000
vt 0.625000 0.000000
vt 0.625000 0.000000
vt 0.625000 1.000000
vt 0.625000 1.000000
vn 0.0000 1.0000 0.0000
vn 0.0000 0.0000 1.0000
vn -1.0000 0.0000 0.0000
vn 0.0000 -1.0000 0.0000
vn 1.0000 0.0000 0.0000
vn 0.0000 0.0000 -1.0000
vn -0.7838 0.6210 0.0000
vn 0.0000 0.6382 0.7698
vn 0.0000 0.6382 -0.7698
vn 0.7838 0.6210 0.0000
vn 0.0000 0.6021 -0.7984
vn -0.9980 0.0625 0.0000
vn 0.9980 0.0625 0.0000
vn 0.0000 0.6021 0.7984
usemtl Material
s off
f 5/1/1 7/2/1 12/3/1 11/4/1
f 4/5/2 3/6/2 7/7/2 8/8/2
f 8/9/3 7/2/3 5/1/3 6/10/3
f 6/11/4 2/12/4 4/5/4 8/13/4
f 2/12/5 1/14/5 3/6/5 4/5/5
f 6/10/6 5/1/6 1/14/6 2/12/6
f 11/4/1 12/3/1 53/15/1 54/16/1
f 3/6/1 1/14/1 9/17/1 10/18/1
f 1/14/1 5/1/1 11/4/1 9/17/1
f 7/7/1 3/6/1 10/18/1 12/19/1
f 15/20/7 16/21/7 20/22/7 19/23/7
f 12/19/2 10/18/2 14/24/2 16/25/2
f 13/26/2 9/17/2 25/27/2 27/28/2
f 10/18/5 9/17/5 13/26/5 14/24/5
f 17/29/2 19/23/2 23/30/2 21/31/2
f 16/25/8 14/24/8 18/32/8 20/33/8
f 13/26/9 15/20/9 19/23/9 17/29/9
f 14/24/10 13/26/10 17/29/10 18/32/10
f 21/31/1 23/34/1 24/35/1 22/36/1
f 18/32/3 17/29/3 21/31/3 22/36/3
f 19/23/5 20/22/5 24/37/5 23/30/5
f 20/33/6 18/32/6 22/36/6 24/38/6
f 25/27/2 26/39/2 30/40/2 29/41/2
f 11/4/2 15/20/2 28/42/2 26/39/2
f 15/20/2 13/26/2 27/28/2 28/42/2
f 9/17/2 11/4/2 26/39/2 25/27/2
f 30/40/2 32/43/2 36/44/2 34/45/2
f 27/28/6 25/27/6 29/41/6 31/46/6
f 28/42/6 27/28/6 31/46/6 32/43/6
f 26/39/6 28/42/6 32/43/6 30/40/6
f 33/47/4 34/45/4 38/48/4 37/49/4
f 29/41/2 30/40/2 34/45/2 33/47/2
f 31/46/2 29/41/2 33/47/2 35/50/2
f 32/43/2 31/46/2 35/50/2 36/44/2
f 39/51/6 37/49/6 41/52/6 43/53/6
f 35/50/5 33/47/5 37/49/5 39/51/5
f 36/44/1 35/50/1 39/51/1 40/54/1
f 34/45/3 36/44/3 40/54/3 38/48/3
f 42/55/5 44/56/5 48/57/5 46/58/5
f 40/54/6 39/51/6 43/53/6 44/56/6
f 38/48/6 40/54/6 44/56/6 42/55/6
f 37/49/6 38/48/6 42/55/6 41/52/6
f 45/59/6 46/58/6 48/57/6 47/60/6
f 41/52/1 42/55/1 46/58/1 45/59/1
f 43/53/3 41/52/3 45/59/3 47/60/3
f 44/56/4 43/53/4 47/60/4 48/57/4
f 28/42/2 26/39/2 51/61/2 52/62/2
f 12/3/2 16/21/2 50/63/2 49/64/2
f 53/65/2 55/66/2 59/67/2 57/68/2
f 15/20/3 11/4/3 54/16/3 56/69/3
f 12/19/3 16/25/3 55/66/3 53/65/3
f 16/21/2 15/20/2 56/69/2 55/70/2
f 58/71/3 57/72/3 59/73/3 60/74/3
f 54/16/4 53/15/4 57/72/4 58/71/4
f 56/69/6 54/16/6 58/71/6 60/74/6
f 56/69/11 60/74/11 64/75/11 62/76/11
f 64/75/3 63/77/3 67/78/3 68/79/3
f 60/74/12 59/73/12 63/77/12 64/75/12
f 55/70/13 56/69/13 62/76/13 61/80/13
f 59/67/14 55/66/14 61/81/14 63/82/14
f 67/83/1 65/84/1 69/85/1 71/86/1
f 63/82/2 61/81/2 65/84/2 67/83/2
f 61/80/5 62/76/5 66/87/5 65/88/5
f 62/76/6 64/75/6 68/79/6 66/87/6
f 70/89/2 72/90/2 76/91/2 74/92/2
f 65/88/1 66/87/1 70/89/1 69/93/1
f 66/87/1 68/79/1 72/90/1 70/89/1
f 68/79/1 67/78/1 71/94/1 72/90/1
f 73/95/1 74/92/1 76/91/1 75/96/1
f 72/90/5 71/94/5 75/96/5 76/91/5
f 71/86/6 69/85/6 73/97/6 75/98/6
f 69/93/3 70/89/3 74/92/3 73/95/3
